<svg id="visual" viewBox="0 0 900 600" width="900" height="600" xmlns="http://www.w3.org/2000/svg" xmlns:xlink="http://www.w3.org/1999/xlink" version="1.1"><rect x="0" y="0" width="900" height="600" fill="#715DF2"></rect><defs><linearGradient id="grad1_0" x1="33.3%" y1="0%" x2="100%" y2="100%"><stop offset="20%" stop-color="#001122" stop-opacity="1"></stop><stop offset="80%" stop-color="#001122" stop-opacity="1"></stop></linearGradient></defs><defs><linearGradient id="grad1_1" x1="33.3%" y1="0%" x2="100%" y2="100%"><stop offset="20%" stop-color="#001122" stop-opacity="1"></stop><stop offset="80%" stop-color="#715df2" stop-opacity="1"></stop></linearGradient></defs><defs><linearGradient id="grad2_0" x1="0%" y1="0%" x2="66.7%" y2="100%"><stop offset="20%" stop-color="#001122" stop-opacity="1"></stop><stop offset="80%" stop-color="#001122" stop-opacity="1"></stop></linearGradient></defs><defs><linearGradient id="grad2_1" x1="0%" y1="0%" x2="66.7%" y2="100%"><stop offset="20%" stop-color="#715df2" stop-opacity="1"></stop><stop offset="80%" stop-color="#001122" stop-opacity="1"></stop></linearGradient></defs><g transform="translate(900, 0)"><path d="M0 459.7C-38.4 423.6 -76.7 387.5 -121.4 373.8C-166.2 360 -217.2 368.7 -255.7 351.9C-294.2 335.1 -320.1 292.9 -351.1 255.1C-382.1 217.3 -418.3 183.8 -437.2 142.1C-456.2 100.3 -457.9 50.1 -459.7 0L0 0Z" fill="#003d8a"></path><path d="M0 229.9C-19.2 211.8 -38.4 193.7 -60.7 186.9C-83.1 180 -108.6 184.4 -127.8 176C-147.1 167.6 -160 146.5 -175.6 127.5C-191.1 108.6 -209.1 91.9 -218.6 71C-228.1 50.1 -229 25.1 -229.9 0L0 0Z" fill="#001122"></path></g><g transform="translate(0, 600)"><path d="M0 -459.7C52.2 -460.5 104.4 -461.4 141.5 -435.6C178.7 -409.8 200.7 -357.4 238.6 -328.5C276.5 -299.6 330.3 -294.2 367.3 -266.9C404.3 -239.5 424.6 -190.2 437.2 -142.1C449.8 -93.9 454.8 -47 459.7 0L0 0Z" fill="#003d8a"></path><path d="M0 -229.9C26.1 -230.3 52.2 -230.7 70.8 -217.8C89.3 -204.9 100.4 -178.7 119.3 -164.2C138.3 -149.8 165.1 -147.1 183.6 -133.4C202.2 -119.8 212.3 -95.1 218.6 -71C224.9 -47 227.4 -23.5 229.9 0L0 0Z" fill="#001122"></path></g></svg>